<svg xmlns="http://www.w3.org/2000/svg" width="131" height="131" fill="none" viewBox="0 0 131 131">
  <g clip-path="url(#a)">
    <path fill="#414B5E" d="M117.965 0H13.035C5.835 0 0 5.836 0 13.035v104.93C0 125.164 5.836 131 13.035 131h104.93c7.199 0 13.035-5.836 13.035-13.035V13.035C131 5.835 125.164 0 117.965 0Z"/>
    <path fill="#0A2A5C" d="M15.72 19.912a5.764 5.764 0 1 0 0-11.528 5.764 5.764 0 0 0 0 11.528Z"/>
    <path fill="#79D7FF" d="M31.964 19.912a5.764 5.764 0 1 0 0-11.528 5.764 5.764 0 0 0 0 11.528Z"/>
    <path fill="#fff" d="M121.044 27.772H9.956v92.224h111.088V27.772Z"/>
    <path stroke="#0443A5" stroke-linejoin="round" stroke-width="5" d="M40.93 39.243H14.09V66.08h26.84V39.243Zm0 44.016H14.09v26.838h26.84V83.259Z"/>
    <path fill="#0443A5" d="M110.564 40.872H52.4v6.812h58.164v-6.812Zm0 44.016H52.4V91.7h58.164v-6.812Zm0-33.012H52.4v6.812h58.164v-6.812Zm0 44.016H52.4v6.812h58.164v-6.812Z"/>
  </g>
  <defs>
    <clipPath id="a">
      <path fill="#fff" d="M0 0h131v131H0z"/>
    </clipPath>
  </defs>
</svg>
