<svg xmlns="http://www.w3.org/2000/svg" width="42" height="42" fill="none" viewBox="0 0 42 42">
  <path fill="#FBC02D" d="M38.16 17.573h-1.41V17.5H21v7h9.89c-1.443 4.075-5.32 7-9.89 7-5.799 0-10.5-4.701-10.5-10.5S15.201 10.5 21 10.5a10.44 10.44 0 0 1 6.966 2.66l4.95-4.95C29.79 5.295 25.61 3.5 21 3.5 11.336 3.5 3.5 11.336 3.5 21S11.336 38.5 21 38.5 38.5 30.664 38.5 21c0-1.173-.12-2.319-.34-3.427Z"/>
  <path fill="#E53935" d="m5.518 12.855 5.75 4.216C12.822 13.22 16.59 10.5 21 10.5a10.44 10.44 0 0 1 6.966 2.66l4.95-4.95C29.79 5.295 25.61 3.5 21 3.5c-6.722 0-12.551 3.795-15.482 9.355Z"/>
  <path fill="#4CAF50" d="M21 38.5c4.52 0 8.628-1.73 11.733-4.543l-5.416-4.583A10.422 10.422 0 0 1 21 31.5c-4.552 0-8.417-2.902-9.873-6.953l-5.706 4.397C8.317 34.612 14.199 38.5 21 38.5Z"/>
  <path fill="#1565C0" d="m38.16 17.573-.014-.073H21v7h9.89a10.535 10.535 0 0 1-3.576 4.875l.003-.002 5.416 4.583C32.35 34.304 38.5 29.75 38.5 21c0-1.173-.12-2.319-.34-3.427Z"/>
</svg>
